<?xml version="1.0" standalone="no"?>
<!DOCTYPE svg PUBLIC "-//W3C//DTD SVG 20010904//EN"
 "http://www.w3.org/TR/2001/REC-SVG-20010904/DTD/svg10.dtd">
<svg version="1.0" xmlns="http://www.w3.org/2000/svg"
 width="552.000000pt" height="552.000000pt" viewBox="0 0 552.000000 552.000000"
 preserveAspectRatio="xMidYMid meet">

<g transform="translate(0.000000,552.000000) scale(0.100000,-0.100000)"
fill="#000000" stroke="none">
<path d="M2421 5096 c-23 -28 -8 -92 38 -161 42 -62 43 -65 31 -65 -6 0 -21
11 -34 25 -16 17 -29 23 -41 19 -10 -4 -21 -1 -27 7 -7 10 -8 8 -3 -9 8 -27
-19 -41 -46 -24 -10 7 -25 12 -33 12 -8 0 -16 6 -19 14 -17 44 -255 70 -321
36 -16 -8 -27 -18 -25 -21 2 -4 -4 -16 -14 -27 -9 -10 -15 -25 -12 -33 8 -24
-6 -35 -119 -93 -59 -30 -113 -62 -120 -70 -6 -9 -31 -22 -55 -31 -40 -14
-208 -113 -240 -141 -12 -11 -10 -15 12 -23 15 -6 27 -15 27 -20 0 -5 -30 -28
-67 -51 -90 -56 -107 -74 -93 -99 8 -17 4 -24 -31 -48 -61 -41 -200 -152 -231
-183 -24 -23 -26 -29 -14 -39 10 -8 16 -9 21 -1 8 13 25 13 25 -1 0 -18 -37
-59 -83 -93 -64 -46 -167 -141 -167 -155 0 -11 38 -9 57 2 18 11 113 16 113 6
0 -6 -10 -9 -22 -7 -14 2 -22 -2 -20 -9 1 -7 -5 -13 -13 -13 -8 0 -15 -5 -15
-11 0 -5 -4 -7 -10 -4 -5 3 -10 2 -10 -3 0 -5 -30 -41 -67 -79 -50 -51 -68
-76 -68 -96 0 -15 3 -27 8 -27 4 0 7 5 7 10 0 6 10 10 23 11 12 0 36 9 52 19
78 50 145 79 145 63 0 -8 -32 -48 -115 -148 -54 -65 -105 -146 -99 -157 4 -5
22 -8 40 -6 44 5 51 -15 26 -73 -10 -24 -22 -66 -26 -94 -4 -27 -9 -61 -11
-75 -5 -31 -6 -240 -2 -260 2 -8 7 -33 11 -55 12 -59 28 -93 48 -98 13 -4 18
-15 18 -42 0 -53 29 -172 46 -186 16 -13 19 -34 4 -24 -5 3 -10 1 -10 -4 0 -6
5 -11 10 -11 6 0 10 -7 10 -16 0 -11 6 -14 20 -9 20 6 28 -9 10 -20 -5 -3 -8
-22 -5 -42 4 -33 0 -40 -41 -76 -94 -83 -133 -224 -103 -369 32 -148 107 -240
246 -298 87 -37 93 -44 93 -114 0 -46 53 -208 80 -246 11 -16 20 -31 20 -35 0
-11 89 -114 129 -150 53 -47 125 -93 214 -136 45 -22 89 -45 97 -50 58 -36
197 -87 322 -119 27 -7 58 -31 105 -79 75 -75 129 -109 146 -92 6 6 9 12 6 14
-2 1 -24 16 -49 32 -73 48 -130 97 -124 106 3 5 20 9 37 9 l32 0 -29 15 c-15
8 -34 15 -42 15 -7 0 -37 11 -67 24 -29 14 -79 34 -110 46 -31 12 -57 25 -57
29 0 4 -26 18 -57 31 -83 33 -213 130 -324 240 -138 137 -198 247 -215 400 -5
43 -3 60 5 60 9 0 9 6 -1 22 -12 23 -13 32 -16 141 -2 51 -5 59 -27 69 -38 17
-54 -5 -69 -92 -7 -41 -17 -75 -23 -77 -17 -6 -107 42 -148 79 -57 49 -96 137
-102 227 -5 67 -2 83 21 136 39 87 69 115 123 115 45 0 109 -26 132 -54 7 -8
27 -18 44 -22 18 -3 38 -11 45 -17 7 -5 15 -7 19 -4 3 4 14 2 24 -4 14 -7 19
-6 19 4 0 8 11 50 25 93 14 43 30 108 36 144 6 36 18 99 26 140 9 41 16 82 17
90 1 9 23 54 48 100 25 47 60 112 78 145 54 100 95 158 151 209 75 67 101 84
107 67 5 -16 120 -168 132 -176 12 -7 1 56 -11 69 -14 16 -10 27 9 24 12 -2
18 5 20 23 3 22 9 28 35 32 43 6 50 2 75 -42 30 -53 48 -67 55 -42 3 11 2 23
-2 26 -3 4 -6 27 -6 51 0 31 4 44 13 44 8 0 12 -6 9 -15 -4 -8 -2 -17 4 -20 5
-4 9 -12 8 -18 -3 -28 14 -57 35 -57 30 0 46 42 46 117 0 65 14 84 26 36 9
-34 31 -71 60 -100 22 -22 22 -22 43 -2 11 11 21 29 21 41 0 20 1 21 20 3 11
-10 20 -26 20 -35 0 -9 7 -25 15 -36 14 -18 14 -18 15 9 0 15 4 27 9 27 9 0
23 41 25 70 1 8 7 15 15 15 9 0 20 -24 30 -64 9 -36 22 -66 29 -69 8 -2 10 2
5 13 -5 14 -2 16 15 10 17 -5 22 -2 20 12 -3 36 2 63 12 63 6 0 10 -11 10 -25
0 -14 5 -25 11 -25 6 0 9 7 5 15 -3 9 0 15 8 15 8 0 16 -6 18 -12 3 -7 13 20
22 60 10 39 22 72 27 72 5 0 10 -26 10 -57 1 -32 2 -62 4 -68 1 -5 3 -20 3
-33 1 -13 12 -27 27 -34 14 -6 25 -17 25 -23 0 -40 64 -39 74 1 5 20 13 24 42
24 22 0 37 6 40 15 8 21 26 19 22 -2 -2 -12 4 -19 19 -21 17 -3 26 5 41 35 10
21 23 47 29 58 6 11 19 39 28 62 19 45 35 48 35 7 0 -15 6 -24 15 -24 8 0 15
4 15 10 0 15 33 50 47 50 9 0 13 -17 13 -52 0 -93 41 -209 61 -176 6 9 9 6 9
-9 0 -13 4 -23 10 -23 5 0 6 -7 3 -17 -4 -10 -2 -14 5 -9 6 3 13 32 17 64 13
128 16 142 30 142 18 0 35 -31 35 -62 0 -32 26 -102 39 -106 6 -2 11 1 11 7 0
6 6 8 14 5 15 -6 20 16 32 139 7 71 17 85 29 40 20 -83 57 -193 64 -189 4 3
11 45 14 93 4 48 10 98 13 111 7 24 34 31 34 8 0 -8 8 -24 18 -36 16 -20 21
-21 40 -9 12 8 22 21 22 31 0 9 5 20 10 23 6 3 10 1 10 -6 0 -17 62 -149 70
-149 13 0 38 26 52 54 l15 28 20 -38 c62 -120 96 -179 102 -182 5 -1 11 25 14
58 3 34 8 64 11 67 12 12 56 -21 71 -53 16 -33 38 -44 50 -24 9 15 25 12 25
-4 0 -22 31 -28 52 -10 10 10 19 15 21 13 18 -31 26 -52 32 -87 5 -32 11 -42
25 -42 22 0 54 -43 64 -85 63 -271 85 -560 60 -804 -6 -61 -6 -63 15 -56 15 4
27 -1 43 -19 21 -23 26 -24 68 -15 25 6 61 14 80 18 68 15 117 -34 139 -137
16 -75 14 -104 -10 -175 -24 -71 -79 -149 -127 -179 -66 -40 -230 -66 -234
-35 -1 6 -2 48 -2 92 l-1 80 -37 6 -37 6 -11 -51 c-22 -102 -31 -126 -47 -126
-11 0 -13 -4 -5 -12 19 -24 2 -88 -47 -183 -46 -89 -156 -205 -195 -205 -17 0
-26 -5 -26 -16 0 -12 -7 -14 -27 -10 -16 3 -53 6 -84 7 -68 3 -90 -11 -181
-111 -55 -61 -72 -73 -133 -95 -64 -24 -160 -45 -290 -64 l-50 -7 30 -14 c17
-7 36 -12 43 -11 7 1 24 -11 37 -27 17 -20 39 -32 67 -37 24 -5 46 -9 51 -10
4 -1 14 -3 23 -4 18 -1 12 -31 -16 -71 -24 -36 -70 -155 -85 -225 -8 -33 -24
-93 -36 -133 -12 -39 -20 -75 -17 -78 3 -3 18 -2 33 2 29 7 35 18 61 109 9 33
22 69 28 80 7 11 18 40 26 65 7 25 18 54 24 65 12 24 32 75 50 130 15 47 78
148 104 167 23 17 87 110 85 123 -3 14 106 81 144 88 18 4 32 3 31 -1 -1 -4 2
-19 6 -35 5 -16 2 -66 -8 -124 -10 -58 -13 -99 -7 -102 6 -4 6 -25 0 -56 -14
-71 -49 -349 -45 -352 2 -2 15 2 30 8 19 9 26 20 27 43 2 66 10 138 19 161 7
18 14 22 31 18 16 -4 20 -2 17 8 -3 8 -11 14 -19 14 -20 0 -15 157 7 190 9 14
12 33 9 48 -11 44 4 65 78 113 81 51 164 128 207 190 41 59 80 134 80 155 0
10 4 20 9 23 5 3 12 21 15 41 8 42 41 54 133 47 92 -7 160 18 226 82 88 86
129 196 129 341 0 88 -18 150 -57 201 l-25 33 25 43 c14 24 28 51 32 61 3 9 9
17 14 17 5 0 9 8 9 18 0 10 5 23 12 30 8 8 8 15 0 25 -9 10 -9 16 0 25 20 20
29 94 33 274 1 75 6 141 10 148 5 8 13 6 29 -8 17 -17 30 -19 69 -15 34 4 47
9 43 19 -3 7 -1 16 3 19 5 3 0 29 -11 57 -24 63 -31 204 -13 263 6 22 12 45
13 50 1 6 4 29 8 52 3 23 -2 89 -12 153 -15 96 -16 113 -3 121 11 7 11 9 1 9
-8 0 -12 6 -9 13 2 6 -2 19 -10 28 -8 9 -16 29 -19 44 -3 15 -16 44 -29 63
-29 43 -31 57 -9 48 9 -4 23 -1 30 5 8 6 24 9 36 6 13 -3 32 -1 43 3 11 5 14
9 7 9 -7 1 -16 9 -19 19 -8 20 -21 36 -45 60 -10 9 -18 22 -18 29 0 7 -9 18
-20 25 -11 7 -20 18 -20 25 0 7 -7 13 -16 13 -10 0 -14 6 -10 15 4 10 -1 15
-15 15 -12 0 -19 5 -16 13 2 6 -4 23 -14 36 -24 31 -24 53 1 69 20 12 28 56
11 66 -5 3 -11 17 -14 32 -4 24 -2 26 23 21 24 -5 27 -4 22 19 -4 23 -6 24
-28 9 -13 -8 -28 -15 -34 -15 -20 0 -10 15 19 28 16 7 32 19 34 27 8 20 -14
87 -37 113 -26 30 -161 132 -174 132 -5 0 -15 7 -23 16 -10 12 -10 17 0 23 8
6 2 16 -23 36 -20 16 -36 37 -36 47 0 10 -6 18 -14 18 -17 0 -48 39 -40 51 7
13 -72 88 -101 95 -14 3 -25 10 -25 14 0 5 -15 12 -32 15 -49 11 -125 47 -193
91 -83 54 -264 133 -317 138 -15 2 -21 18 -9 25 18 11 0 44 -25 47 -129 17
-185 15 -309 -13 -27 -6 -29 -5 -17 10 8 9 24 19 35 23 12 4 35 16 52 28 16
11 39 26 50 31 25 13 31 68 9 89 -38 39 -200 9 -304 -55 -28 -17 -61 -31 -73
-30 -12 1 -42 3 -67 4 -25 2 -106 -5 -180 -14 -74 -10 -163 -19 -197 -19 -55
0 -66 3 -96 30 -19 17 -42 30 -51 30 -9 0 -33 15 -53 33 -48 42 -99 78 -104
72 -3 -2 -21 0 -41 4 -25 6 -40 5 -47 -3z m-1276 -966 c-3 -5 -11 -10 -16 -10
-6 0 -7 5 -4 10 3 6 11 10 16 10 6 0 7 -4 4 -10z m3504 -113 c23 -23 30 -47
22 -75 -2 -6 -61 29 -90 54 -29 24 -41 61 -25 77 9 9 60 -22 93 -56z m-3377
-22 c15 -21 7 -38 -49 -96 -45 -47 -62 -59 -82 -57 -18 2 -27 10 -29 25 -4 26
36 92 74 122 28 22 72 25 86 6z m2979 -90 c23 -59 19 -96 -10 -88 -24 6 -42
34 -61 90 -11 35 -11 45 0 58 20 24 48 -1 71 -60z m-2741 -4 c0 -56 -64 -151
-102 -151 -18 0 -20 5 -16 38 6 38 58 126 81 135 28 12 37 6 37 -22z m2320 20
c0 -5 7 -17 16 -25 13 -13 14 -22 4 -51 -6 -19 -15 -35 -20 -35 -13 0 -41 81
-35 101 6 19 35 27 35 10z m290 -20 c29 -41 19 -81 -20 -81 -15 0 -32 6 -38
13 -15 17 -25 64 -18 82 10 26 53 18 76 -14z m-583 -3 c10 -14 33 -88 33 -107
0 -6 -7 -11 -15 -11 -20 0 -55 58 -55 91 0 38 18 51 37 27z m-1702 -90 c0 -60
-13 -85 -39 -75 -11 5 -16 20 -16 52 0 55 15 87 38 83 14 -3 17 -15 17 -60z
m-207 -13 c1 -17 -4 -41 -11 -55 -11 -22 -21 -26 -57 -21 -14 1 -13 47 1 74
25 47 63 48 67 2z m279 -721 c-9 -9 -28 6 -21 18 4 6 10 6 17 -1 6 -6 8 -13 4
-17z"/>
<path d="M2345 4940 c3 -5 11 -10 16 -10 6 0 7 5 4 10 -3 6 -11 10 -16 10 -6
0 -7 -4 -4 -10z"/>
<path d="M2930 3020 c0 -5 5 -10 10 -10 6 0 10 5 10 10 0 6 -4 10 -10 10 -5 0
-10 -4 -10 -10z"/>
<path d="M5045 2890 c3 -5 11 -10 16 -10 6 0 7 5 4 10 -3 6 -11 10 -16 10 -6
0 -7 -4 -4 -10z"/>
<path d="M5087 2834 c-9 -9 4 -35 14 -28 5 3 9 12 9 20 0 14 -12 19 -23 8z"/>
<path d="M5121 2774 c0 -11 3 -14 6 -6 3 7 2 16 -1 19 -3 4 -6 -2 -5 -13z"/>
<path d="M1935 2586 c-134 -31 -205 -79 -205 -139 0 -56 38 -62 111 -17 73 45
149 61 239 50 41 -5 89 -14 107 -20 48 -17 75 1 71 48 -3 32 -8 38 -52 60 -61
30 -182 38 -271 18z"/>
<path d="M3490 2427 c-36 -18 -42 -83 -9 -95 12 -5 43 -5 67 0 90 16 231 -35
325 -118 42 -39 57 -42 80 -16 79 87 -151 242 -357 242 -45 0 -92 -6 -106 -13z"/>
<path d="M1985 2396 c-16 -8 -48 -19 -69 -26 -44 -14 -73 -37 -90 -71 -13 -26
-58 -41 -89 -30 -78 29 -98 19 -51 -24 18 -17 39 -25 61 -25 l34 0 -6 -54 c-8
-64 10 -155 40 -200 11 -16 41 -43 66 -58 40 -25 55 -29 128 -29 71 -1 88 3
119 24 105 69 138 139 130 271 -5 79 -22 118 -69 165 -64 65 -139 85 -204 57z
m14 -120 c18 -19 21 -31 16 -54 -8 -37 -22 -50 -62 -58 -35 -7 -52 9 -60 59
-10 67 60 102 106 53z"/>
<path d="M3604 2263 c-21 -8 -49 -17 -62 -20 -12 -3 -25 -9 -28 -14 -3 -5 -13
-9 -22 -9 -17 -1 -62 -33 -62 -45 0 -4 -9 -20 -20 -36 -41 -57 -63 -195 -40
-254 22 -58 74 -107 148 -141 75 -35 114 -41 154 -25 13 5 35 12 50 15 17 4
45 29 77 68 46 57 51 67 57 130 4 37 9 68 13 69 3 0 28 2 55 3 34 1 52 7 62
21 23 31 17 35 -49 28 -69 -6 -74 -3 -97 57 -20 52 -57 98 -102 127 -60 37
-88 43 -134 26z m-8 -128 c28 -29 25 -68 -8 -97 -44 -39 -98 -7 -98 56 0 63
60 86 106 41z"/>
<path d="M1250 2121 c0 -5 5 -13 10 -16 6 -3 10 -2 10 4 0 5 -4 13 -10 16 -5
3 -10 2 -10 -4z"/>
<path d="M2321 1554 c20 -24 67 -45 143 -65 57 -15 71 -15 82 -5 16 16 8 26
-20 26 -12 0 -59 14 -106 30 -99 35 -119 38 -99 14z"/>
<path d="M3230 1505 c-75 -39 -175 -48 -380 -34 -99 6 -183 9 -187 5 -14 -14
35 -34 97 -41 36 -3 90 -9 120 -13 30 -4 99 -6 153 -5 l97 2 -18 -27 c-30 -41
-64 -113 -58 -120 3 -3 1 -11 -5 -19 -9 -10 -8 -13 5 -13 9 0 16 5 16 11 0 16
123 164 188 227 60 57 50 67 -28 27z"/>
<path d="M1819 596 c-59 -29 -120 -62 -137 -74 -16 -12 -34 -22 -39 -22 -6 0
-18 -9 -28 -20 -10 -11 -22 -20 -27 -20 -8 0 -65 -37 -78 -50 -3 -3 -22 -16
-42 -30 -21 -14 -38 -28 -38 -31 0 -3 11 -12 25 -19 23 -12 30 -12 58 4 18 11
46 31 62 46 30 27 165 116 194 129 70 28 221 116 221 127 0 28 -65 13 -171
-40z"/>
<path d="M3179 605 c-8 -8 -52 -30 -97 -49 -71 -28 -79 -35 -58 -40 27 -7 42
-3 106 27 47 22 90 55 90 69 0 13 -25 9 -41 -7z"/>
<path d="M1975 581 c-9 -16 39 -133 80 -195 90 -135 185 -214 325 -268 76 -30
180 -46 180 -28 0 15 66 12 79 -4 18 -22 66 -27 149 -15 129 18 293 102 384
196 45 47 129 173 122 184 -10 17 -45 -9 -98 -72 -93 -113 -255 -220 -384
-253 -123 -32 -317 -14 -426 41 -72 36 -186 125 -236 184 -48 57 -120 172
-120 192 0 14 -31 47 -43 47 -3 0 -8 -4 -12 -9z"/>
<path d="M3940 440 c0 -10 69 -60 84 -60 5 0 20 -9 32 -21 21 -20 23 -20 49
-3 l28 18 -24 9 c-13 5 -39 15 -57 23 -18 8 -37 14 -43 14 -6 0 -17 7 -25 15
-17 17 -44 20 -44 5z"/>
<path d="M2030 121 c0 -6 4 -13 10 -16 6 -3 7 1 4 9 -7 18 -14 21 -14 7z"/>
</g>
</svg>
